<svg xmlns="http://www.w3.org/2000/svg" xmlns:xlink="http://www.w3.org/1999/xlink" width="830" zoomAndPan="magnify" viewBox="0 0 622.5 73.499998" height="98" preserveAspectRatio="xMidYMid meet" version="1.0"><defs><g/><clipPath id="3ba49479a1"><path d="M 480 3 L 529.265625 3 L 529.265625 69 L 480 69 Z M 480 3 " clip-rule="nonzero"/></clipPath><clipPath id="d0ca404cfa"><path d="M 535.0625 6.234375 L 572.203125 6.234375 L 572.203125 43.375 L 535.0625 43.375 Z M 535.0625 6.234375 " clip-rule="nonzero"/></clipPath><clipPath id="eedbc302ed"><path d="M 553.632812 6.234375 C 543.378906 6.234375 535.0625 14.546875 535.0625 24.804688 C 535.0625 35.058594 543.378906 43.375 553.632812 43.375 C 563.890625 43.375 572.203125 35.058594 572.203125 24.804688 C 572.203125 14.546875 563.890625 6.234375 553.632812 6.234375 Z M 553.632812 6.234375 " clip-rule="nonzero"/></clipPath></defs><path fill="#ff4713" d="M 41.375 3.128906 L 69.53125 3.128906 L 69.53125 26.519531 L 41.375 26.519531 Z M 41.375 3.128906 " fill-opacity="1" fill-rule="nonzero"/><path fill="#ff4713" d="M 31.613281 27.488281 L 31.613281 3.128906 L 3.308594 3.128906 L 3.308594 55.796875 Z M 31.613281 27.488281 " fill-opacity="1" fill-rule="nonzero"/><path fill="#ff4713" d="M 36.605469 36.277344 L 3.308594 69.351562 L 69.53125 69.351562 L 69.53125 36.277344 Z M 36.605469 36.277344 " fill-opacity="1" fill-rule="nonzero"/><path fill="#ffffff" d="M 90.539062 68.980469 L 90.539062 18.996094 L 102.085938 18.996094 L 103.574219 24.65625 L 104.023438 24.65625 C 105.363281 22.644531 107 21.230469 109.011719 20.335938 C 111.023438 19.441406 113.257812 18.996094 115.71875 18.996094 L 121.902344 18.996094 L 121.902344 31.957031 L 116.613281 31.957031 C 114.003906 31.957031 111.695312 32.480469 109.757812 33.449219 C 107.820312 34.414062 106.40625 35.832031 105.4375 37.695312 C 104.46875 39.480469 103.949219 41.714844 103.949219 44.25 L 103.949219 68.90625 L 90.390625 68.90625 Z M 90.539062 68.980469 " fill-opacity="1" fill-rule="nonzero"/><path fill="#ffffff" d="M 148.421875 69.875 C 143.355469 69.875 138.960938 68.832031 135.308594 66.820312 C 131.660156 64.808594 128.828125 61.828125 126.816406 57.957031 C 124.804688 54.082031 123.835938 49.390625 123.835938 43.875 C 123.835938 38.363281 124.804688 33.894531 126.816406 30.019531 C 128.828125 26.148438 131.660156 23.167969 135.308594 21.15625 C 139.035156 19.070312 143.355469 18.027344 148.421875 18.027344 C 153.484375 18.027344 157.507812 19.070312 161.160156 21.15625 C 164.808594 23.242188 167.640625 26.222656 169.578125 30.09375 C 171.511719 33.96875 172.480469 38.289062 172.480469 43.058594 C 172.480469 47.824219 172.480469 44.917969 172.332031 45.886719 C 172.257812 46.855469 172.109375 47.601562 172.035156 48.273438 L 133.445312 48.273438 L 133.445312 38.738281 L 159.445312 38.738281 C 159.148438 37.246094 158.550781 35.757812 157.65625 34.339844 C 156.761719 32.925781 155.570312 31.734375 154.007812 30.839844 C 152.441406 29.945312 150.582031 29.5 148.421875 29.5 C 146.261719 29.5 144.175781 30.019531 142.535156 31.0625 C 140.894531 32.105469 139.554688 33.671875 138.660156 35.609375 C 137.691406 37.617188 137.246094 39.929688 137.246094 42.609375 C 137.246094 45.292969 137.617188 48.792969 138.363281 51.101562 C 139.109375 53.484375 140.300781 55.273438 141.9375 56.464844 C 143.578125 57.65625 145.738281 58.328125 148.347656 58.328125 C 150.953125 58.328125 152.667969 57.882812 153.859375 57.0625 C 155.125 56.242188 156.242188 54.976562 157.210938 53.261719 L 171.585938 53.261719 C 170.695312 56.242188 169.351562 59 167.492188 61.457031 C 165.628906 63.914062 163.09375 65.925781 159.964844 67.492188 C 156.761719 69.054688 152.890625 69.800781 148.347656 69.800781 Z M 148.421875 69.875 " fill-opacity="1" fill-rule="nonzero"/><path fill="#ffffff" d="M 199.894531 69.875 C 195.722656 69.875 192 69.203125 188.871094 67.9375 C 185.667969 66.671875 183.207031 64.734375 181.273438 62.277344 C 179.410156 59.742188 178.144531 56.765625 177.621094 53.261719 L 192 53.261719 C 192.222656 54.679688 193.117188 55.945312 194.457031 56.988281 C 195.871094 58.03125 197.734375 58.550781 199.96875 58.550781 C 202.203125 58.550781 204.960938 58.179688 206.300781 57.359375 C 207.640625 56.539062 208.3125 55.570312 208.3125 54.304688 C 208.3125 53.039062 207.941406 52.59375 207.121094 51.996094 C 206.300781 51.398438 205.257812 50.953125 203.992188 50.582031 C 202.726562 50.207031 201.011719 49.835938 198.703125 49.390625 C 194.753906 48.570312 191.476562 47.675781 188.945312 46.78125 C 186.335938 45.8125 184.175781 44.324219 182.238281 42.089844 C 180.378906 39.929688 179.410156 36.949219 179.410156 33.222656 C 179.410156 29.5 180.230469 27.710938 181.792969 25.476562 C 183.359375 23.242188 185.667969 21.453125 188.722656 20.113281 C 191.773438 18.773438 195.5 18.101562 199.820312 18.101562 C 204.140625 18.101562 207.640625 18.699219 210.695312 19.964844 C 213.75 21.15625 216.210938 22.945312 218.070312 25.328125 C 219.933594 27.710938 221.125 30.542969 221.648438 33.820312 L 207.34375 33.820312 C 207.121094 32.480469 206.375 31.4375 205.183594 30.691406 C 203.992188 29.945312 202.203125 29.574219 199.820312 29.574219 C 197.4375 29.574219 196.246094 29.871094 195.054688 30.542969 C 193.859375 31.210938 193.265625 32.105469 193.265625 33.222656 C 193.265625 34.339844 193.710938 34.9375 194.53125 35.535156 C 195.351562 36.128906 196.394531 36.578125 197.660156 36.949219 C 198.925781 37.320312 200.640625 37.695312 202.800781 38.140625 C 206.75 38.960938 210.027344 39.855469 212.558594 40.746094 C 215.089844 41.714844 217.328125 43.207031 219.261719 45.441406 C 221.199219 47.601562 222.167969 50.582031 222.167969 54.304688 C 222.167969 58.03125 221.273438 60.488281 219.5625 62.796875 C 217.773438 65.179688 215.242188 66.894531 211.964844 68.085938 C 208.609375 69.277344 204.589844 69.875 199.820312 69.875 Z M 199.894531 69.875 " fill-opacity="1" fill-rule="nonzero"/><path fill="#ffffff" d="M 229.992188 35.085938 L 243.546875 35.085938 L 243.546875 68.980469 L 229.992188 68.980469 Z M 229.992188 35.085938 " fill-opacity="1" fill-rule="nonzero"/><path fill="#ff4713" d="M 229.992188 18.921875 L 243.546875 18.921875 L 243.546875 31.363281 L 229.992188 31.363281 Z M 229.992188 18.921875 " fill-opacity="1" fill-rule="nonzero"/><path fill="#ffffff" d="M 254.5 68.980469 L 254.5 18.996094 L 266.046875 18.996094 L 267.535156 24.65625 L 267.980469 24.65625 C 269.621094 22.496094 271.558594 20.859375 273.792969 19.742188 C 276.027344 18.625 278.484375 18.027344 281.019531 18.027344 C 283.550781 18.027344 287.871094 18.847656 290.628906 20.484375 C 293.382812 22.125 295.542969 24.433594 297.035156 27.488281 C 298.597656 30.542969 299.34375 34.117188 299.34375 38.289062 L 299.34375 68.980469 L 286.007812 68.980469 L 286.007812 40.300781 C 286.007812 38.140625 285.636719 36.351562 284.964844 34.863281 C 284.296875 33.371094 283.253906 32.179688 281.910156 31.363281 C 280.570312 30.542969 279.007812 30.167969 277.144531 30.167969 C 275.28125 30.167969 273.644531 30.617188 272.226562 31.4375 C 270.8125 32.253906 269.769531 33.449219 269.023438 35.011719 C 268.28125 36.578125 267.90625 38.289062 267.90625 40.300781 L 267.90625 68.980469 L 254.347656 68.980469 Z M 254.5 68.980469 " fill-opacity="1" fill-rule="nonzero"/><path fill="#ffffff" d="M 318.5625 68.980469 L 305.003906 18.996094 L 318.488281 18.996094 L 326.980469 52.742188 L 327.425781 52.742188 L 336.367188 18.996094 L 349.179688 18.996094 L 358.117188 52.742188 L 358.566406 52.742188 L 366.910156 18.996094 L 380.167969 18.996094 L 366.535156 68.980469 L 351.488281 68.980469 L 342.847656 37.769531 L 342.402344 37.769531 L 333.757812 68.980469 Z M 318.5625 68.980469 " fill-opacity="1" fill-rule="nonzero"/><path fill="#ffffff" d="M 408.476562 69.875 C 403.410156 69.875 399.015625 68.832031 395.367188 66.820312 C 391.714844 64.808594 388.882812 61.828125 386.871094 57.957031 C 384.863281 54.082031 383.894531 49.390625 383.894531 43.949219 C 383.894531 38.511719 384.863281 33.820312 386.871094 30.019531 C 388.882812 26.222656 391.640625 23.242188 395.367188 21.15625 C 399.015625 19.070312 403.410156 18.027344 408.476562 18.027344 C 413.542969 18.027344 417.863281 19.070312 421.585938 21.15625 C 425.3125 23.242188 428.140625 26.148438 430.078125 30.019531 C 432.089844 33.820312 433.058594 38.511719 433.058594 43.949219 C 433.058594 49.390625 432.089844 54.082031 430.078125 57.957031 C 428.066406 61.828125 425.238281 64.808594 421.585938 66.820312 C 417.863281 68.832031 413.542969 69.875 408.476562 69.875 Z M 408.476562 57.882812 C 410.5625 57.882812 412.425781 57.359375 414.0625 56.390625 C 415.703125 55.421875 417.042969 53.859375 418.085938 51.699219 C 419.054688 49.613281 419.574219 47.003906 419.574219 43.949219 C 419.574219 40.898438 419.054688 38.289062 418.085938 36.203125 C 417.117188 34.117188 415.777344 32.628906 414.0625 31.585938 C 412.425781 30.617188 410.5625 30.09375 408.476562 30.09375 C 406.390625 30.09375 404.453125 30.617188 402.816406 31.585938 C 401.175781 32.554688 399.835938 34.117188 398.867188 36.203125 C 397.898438 38.289062 397.375 40.824219 397.375 43.949219 C 397.375 47.078125 397.898438 49.613281 398.867188 51.699219 C 399.835938 53.785156 401.175781 55.347656 402.816406 56.390625 C 404.453125 57.359375 406.390625 57.882812 408.476562 57.882812 Z M 408.476562 57.882812 " fill-opacity="1" fill-rule="nonzero"/><path fill="#ffffff" d="M 441.773438 68.980469 L 441.773438 18.996094 L 453.320312 18.996094 L 454.8125 24.65625 L 455.257812 24.65625 C 456.597656 22.644531 458.238281 21.230469 460.25 20.335938 C 462.261719 19.441406 464.496094 18.996094 466.953125 18.996094 L 473.136719 18.996094 L 473.136719 31.957031 L 467.847656 31.957031 C 465.238281 31.957031 462.929688 32.480469 460.992188 33.449219 C 459.058594 34.414062 457.640625 35.832031 456.671875 37.695312 C 455.703125 39.480469 455.183594 41.714844 455.183594 44.25 L 455.183594 68.90625 L 441.625 68.90625 Z M 441.773438 68.980469 " fill-opacity="1" fill-rule="nonzero"/><g clip-path="url(#3ba49479a1)"><path fill="#ffffff" d="M 480.660156 68.980469 L 480.660156 3.128906 L 494.21875 3.128906 L 494.21875 41.121094 L 512.46875 18.996094 L 528.113281 18.996094 L 508 43.28125 L 529.527344 68.980469 L 513.511719 68.980469 L 494.21875 46.035156 L 494.21875 68.980469 Z M 480.660156 68.980469 " fill-opacity="1" fill-rule="nonzero"/></g><g fill="#ffffff" fill-opacity="1"><g transform="translate(543.798741, 36.352752)"><g><path d="M 8.875 -21.265625 C 10.800781 -21.265625 12.390625 -21.03125 13.640625 -20.5625 C 14.898438 -20.101562 15.835938 -19.398438 16.453125 -18.453125 C 17.066406 -17.515625 17.375 -16.332031 17.375 -14.90625 C 17.375 -13.925781 17.1875 -13.070312 16.8125 -12.34375 C 16.445312 -11.625 15.960938 -11.007812 15.359375 -10.5 C 14.765625 -10 14.117188 -9.585938 13.421875 -9.265625 L 19.671875 0 L 14.671875 0 L 9.59375 -8.15625 L 7.1875 -8.15625 L 7.1875 0 L 2.671875 0 L 2.671875 -21.265625 Z M 8.5625 -17.578125 L 7.1875 -17.578125 L 7.1875 -11.828125 L 8.640625 -11.828125 C 10.140625 -11.828125 11.207031 -12.078125 11.84375 -12.578125 C 12.488281 -13.078125 12.8125 -13.8125 12.8125 -14.78125 C 12.8125 -15.789062 12.460938 -16.507812 11.765625 -16.9375 C 11.078125 -17.363281 10.007812 -17.578125 8.5625 -17.578125 Z M 8.5625 -17.578125 "/></g></g></g><g clip-path="url(#d0ca404cfa)"><g clip-path="url(#eedbc302ed)"><path stroke-linecap="butt" transform="matrix(0.744932, 0, 0, 0.744932, 535.06308, 6.232836)" fill="none" stroke-linejoin="miter" d="M 24.928078 0.00206585 C 11.163196 0.00206585 -0.000778605 11.160797 -0.000778605 24.930923 C -0.000778605 38.695805 11.163196 49.859779 24.928078 49.859779 C 38.698204 49.859779 49.856935 38.695805 49.856935 24.930923 C 49.856935 11.160797 38.698204 0.00206585 24.928078 0.00206585 Z M 24.928078 0.00206585 " stroke="#ffffff" stroke-width="6" stroke-opacity="1" stroke-miterlimit="4"/></g></g></svg>